ply
format ascii 1.0
comment Generated by SPALT molecular surface export
element vertex 581
property float x
property float y
property float z
property float esp_color
property float hydrophobicity_color
property float hbond_color
element face 1158
property list uchar int vertex_indices
end_header
-5.773 0.681 -0.367 0.0303796 0.777584 0
-5.634 1.116 -0.293 0.0396794 0.777584 0
-5.74 1.54 -0.446 0.0466783 0.777584 0
-5.497 0.958 0.169 0.0353562 0.777584 0
-5.652 0.541 0.04 0.0237635 0.777584 0
-5.539 1.077 1.096 0.050255 0.777584 0
-4.986 0.265 1.449 -0.0276623 0.777584 0
-5.099 -0.271 0.393 -0.0303647 0.777584 0
-4.675 0.083 1.159 -0.085547 0.777584 0
-4.525 -0.038 1.129 -0.12795 0.777584 0
-4.967 -0.377 0.367 -0.0415171 0.777584 0
-4.158 -0.484 1.296 -0.259579 -0.1653 -0.683121
-3.273 -0.791 0.441 -0.246746 -0.1653 -0.675632
-4.134 -0.667 -0.439 -0.0452473 0.777584 0
-2.758 -0.981 0.222 -0.135634 1 0
-2.629 -0.865 0.002 -0.0979805 1 0
-4.02 -0.564 -0.633 -0.0338684 0.777584 0
-3.643 -0.298 -0.595 -0.0459355 0.777584 0
-3.661 -0.251 -0.868 -0.0205298 0.777584 0
-4.036 -0.523 -0.873 -0.0174495 0.777584 0
-3.313 -0.141 -1.151 -0.00127911 0.777584 0
-3.863 0.354 -1.904 0.028664 0.777584 0
-4.587 -0.028 -1.626 0.0208322 0.777584 0
-4.287 0.312 -1.723 0.0259993 0.777584 0
-5.276 0.998 -1.438 0.03769 0.777584 0
-5.458 0.576 -1.375 0.0318231 0.777584 0
-5.425 1.436 -1.454 0.0431851 0.777584 0
-4.245 1.539 -1.836 0.0459588 0.777584 0
-4.516 1.912 -1.805 0.0492734 0.777584 0
-3.827 1.435 -2.004 0.0454955 0.777584 0
-3.227 2.023 -1.337 0.0599747 0.777584 0
-3.917 2.5 -1.138 0.0621887 0.777584 0
-3.564 2.207 -1.079 0.0625556 0.777584 0
-3.577 2.361 -0.545 0.0718304 0.777584 0
-3.928 2.636 -0.667 0.0693594 0.777584 0
-3.123 2.693 0.222 0.0979924 0.777584 0
-3.891 2.777 0.913 0.102669 0.777584 0
-4.697 2.721 0.024 0.0722258 0.777584 0
-4.256 2.505 0.829 0.101113 0.777584 0
-4.553 2.351 0.941 0.0976229 0.777584 0
-4.958 2.586 0.123 0.0700949 0.777584 0
-4.879 2.262 1.257 0.0913288 0.777584 0
-5.528 1.415 1.061 0.0628631 0.777584 0
-5.608 1.739 -0.073 0.0530387 0.777584 0
-5.484 1.341 0.13 0.0471913 0.777584 0
-4.295 2.463 1.274 0.102335 0.777584 0
-4.652 2.36 1.55 0.0914078 0.777584 0
-3.925 2.74 1.305 0.0997776 0.777584 0
-3.363 2.217 2.161 0.0557489 0.777584 0
-4.089 1.837 2.406 0.0444885 0.777584 0
-3.656 1.868 2.246 0.038716 0.777584 0
-3.655 0.916 2.408 -0.108311 0.777584 0
-4.088 0.999 2.549 -0.0364313 0.777584 0
-3.345 0.407 2.492 -0.246932 -0.1653 -0.824331
-4.176 -0.426 1.5 -0.259575 -0.1653 -0.530382
-4.871 0.214 1.615 -0.0463108 0.777584 0
-4.544 0.025 1.347 -0.123833 0.777584 0
-2.827 1.313 2.118 -0.0877241 0.777584 0
-2.571 0.778 2.22 -0.220012 -0.1653 -0.419415
-2.633 1.728 2.048 -0.00408154 0.777584 0
-2.467 1.721 1.945 -0.00290041 0.777584 0
-2.396 0.771 2.11 -0.213157 -0.1653 -0.238816
-1.818 0.69 2.009 -0.110133 1 0
-2.003 -0.492 2.412 -0.141012 1 0
-2.568 -0.334 2.488 -0.258289 -0.1653 -0.806905
-1.798 -1.004 2.574 -0.0595407 1 0
-1.935 -1.161 2.566 -0.0584963 1 0
-2.697 -0.48 2.48 -0.263679 -0.1653 -0.788994
-2.146 -1.535 2.701 -0.0334885 1 0
-2.704 -2.189 1.331 -0.0336728 1 0
-3.289 -1.174 1.027 -0.262994 -0.1653 -0.865202
-2.569 -1.903 1.01 -0.0588082 1 0
-2.515 -1.844 0.824 -0.0598313 1 0
-3.238 -1.118 0.853 -0.258089 -0.1653 -0.83781
-2.72 -1.332 0.663 -0.141016 1 0
-1.146 -1.575 -0.06 0.0257458 1 0
-1.351 -1.063 -0.222 0.0304791 1 0
-0.491 -0.879 -0.659 0.0612579 1 0
-0.502 -0.86 -0.673 0.0610496 1 0
-1.362 -1.044 -0.236 0.0302658 1 0
-1.026 -0.688 -0.541 0.0502887 1 0
-1.647 -0.249 -0.713 0.029131 1 0
-1.983 -0.605 -0.408 -0.00441616 1 0
-2.728 0.047 -1.272 0.0148989 0.777584 0
-3.202 -0.124 -1.016 -0.00796762 0.777584 0
-2.521 -0.799 -0.118 -0.0748012 1 0
-3.536 -0.231 -0.715 -0.0346559 0.777584 0
-1.22 0.808 -1.137 0.0706439 1 0
-2.352 0.978 -1.645 0.0486085 0.777584 0
-1.339 1.241 -1.125 0.082866 1 0
-1.935 2.22 -0.46 0.0931514 1 0
-2.948 1.957 -0.981 0.0656144 0.777584 0
-3.247 2.132 -0.675 0.0685069 0.777584 0
-1.943 2.233 -0.421 0.093508 1 0
-3.255 2.146 -0.63 0.0693486 0.777584 0
-2.839 2.503 0.146 0.0973083 0.777584 0
-1.177 1.967 0.914 0.0777097 1 0
-2.074 2.238 1.482 0.0588089 0.777584 0
-1.035 1.633 1.179 0.0567745 1 0
-1.206 1.216 1.486 0.0188293 1 0
-2.223 1.87 1.753 0.022356 0.777584 0
-1.541 0.86 1.791 -0.0459729 1 0
-0.192 0.28 1.509 0.0538826 1 0
-0.528 -0.076 1.814 0.0327339 1 0
0.332 0.108 1.377 0.0667918 1 0
0.334 0.095 1.378 0.0668443 1 0
-0.525 -0.089 1.814 0.0328659 1 0
-0.32 -0.602 1.976 0.0286449 1 0
0.354 0.077 1.378 0.0670003 1 0
-0.301 -0.619 1.977 0.0288889 1 0
0.554 -0.426 1.536 0.0586273 1 0
0.56 -0.435 1.543 0.0581795 1 0
-0.295 -0.629 1.983 0.0287271 1 0
0.236 -0.791 1.844 0.0397765 1 0
-0.153 -2.526 2.386 0.0459501 1 0
-0.683 -2.364 2.525 0.0404791 1 0
-1.044 -2.594 2.665 0.0452089 1 0
-0.154 -2.551 2.375 0.046861 1 0
-1.045 -2.616 2.655 0.0456447 1 0
0.058 -2.948 2.364 0.0565287 1 0
-0.435 -3.525 1.156 0.0548239 1 0
-1.538 -3.193 1.447 0.044622 1 0
-0.714 -3.206 1.003 0.0449839 1 0
-0.726 -3.196 0.98 0.0440414 1 0
-1.549 -3.184 1.427 0.044222 1 0
-1.257 -3.034 1.119 0.0390257 1 0
-0.597 -1.765 -0.199 0.0352069 1 0
-1.128 -1.603 -0.06 0.025653 1 0
-0.273 -1.41 -0.501 0.0519862 1 0
-0.277 -1.395 -0.501 0.0525265 1 0
-1.132 -1.588 -0.06 0.0258932 1 0
-0.477 -0.892 -0.658 0.0613057 1 0
0.72 -1.196 -1.131 0.0330049 1 0
0.52 -0.693 -1.288 0.0467983 1 0
0.97 -0.426 -1.678 0.0310826 1 0
0.149 0.708 -1.728 0.0271581 1 0
-0.261 0.386 -1.335 0.0549032 1 0
-0.785 0.558 -1.203 0.0639629 1 0
0.114 1.115 -1.665 0.0265086 1 0
-0.818 0.944 -1.144 0.0741215 1 0
-0.986 1.361 -1.131 0.0838425 1 0
0.84 1.949 0.113 0.0342695 1 0
-0.378 2.059 0.358 0.0860328 1 0
-0.128 1.737 0.547 0.0773775 1 0
1.011 1.712 0.389 0.037291 1 0
0.035 1.512 0.809 0.0684249 1 0
0.559 1.34 0.677 0.0620472 1 0
1.921 0.685 0.661 0.0518666 1 0
1.424 0.364 0.935 0.0604269 1 0
1.624 -0.14 1.093 0.0471729 1 0
2.086 0.593 0.601 0.0561754 1 0
1.78 -0.226 1.037 0.0390125 1 0
2.507 0.088 0.592 0.0662066 1 0
2.611 -0.078 0.644 0.0570895 1 0
1.884 -0.393 1.089 0.0262737 1 0
2.393 -0.539 0.887 -0.000811844 1 0
2.242 -1.707 1.193 -0.0538818 1 0
1.727 -1.613 1.409 -0.0064547 1 0
1.403 -1.968 1.711 0.0206553 1 0
2.263 -1.898 1.129 -0.0596063 1 -0.0941639
1.425 -2.167 1.644 0.0226687 1 0
1.448 -2.61 1.721 0.0345863 1 0
1.674 -2.587 -0.316 -0.0675999 1 -0.0969484
0.906 -3.244 0.391 0.0307776 1 0
0.81 -2.887 0.134 0.0176761 1 0
1.568 -2.497 -0.461 -0.0634201 1 0
0.699 -2.793 -0.018 0.0148407 1 0
1.023 -2.437 -0.319 -0.0143742 1 0
1.537 -1.539 -1.217 -0.0212765 1 0
0.99 -1.436 -1.109 0.0107327 1 0
1.717 -1.122 -1.554 0.0279913 1 0
1.623 -0.945 -1.583 0.0380051 1 0
0.896 -1.26 -1.138 0.0237122 1 0
1.155 -0.493 -1.686 0.0330702 1 0
2.283 -0.456 -2.176 0.0481291 1 0
1.85 0.021 -2.31 0.0197397 1 0
3.001 -0.476 -3.049 -0.0855111 1 -0.861835
3.688 0.693 -2.925 -0.0804797 1 -0.716682
2.623 1.338 -2.17 0.00207721 1 0
3.646 0.859 -2.358 -0.00955234 1 0
3.832 1.123 -2.024 0.00692258 1 0
2.809 1.603 -1.835 0.00672969 1 0
4.228 1.615 -1.762 -0.0275798 -0.0179614 0
4.225 1.817 -0.34 0.0307026 -0.0179614 0
2.806 1.824 -0.273 0.0303812 1 0
4.324 1.751 0.108 0.0765334 -0.0179614 0
4.215 1.111 0.588 0.108165 -0.0179614 0
2.675 1.059 0.3 0.0610926 1 0
3.067 0.531 0.305 0.0994417 1 0
4.632 0.336 0.668 0.105283 -0.0179614 0.0409432
3.542 -0.348 0.396 0.0775457 1 0
4.196 -0.346 0.207 0.0748999 1 0
4.178 -0.744 0.159 0.0354592 1 0
3.524 -0.727 0.35 0.0431589 1 0
3.266 -1.161 0.605 -0.0335548 1 0
4.214 -0.854 0.131 0.0195755 1 0
3.299 -1.261 0.58 -0.0413099 1 0
4.561 -1.33 0.184 -0.0688056 1 -0.715959
4.091 -2.248 -1.252 -0.112406 1 -0.71656
2.817 -2.201 -0.892 -0.0765048 1 -0.288409
3.685 -1.887 -1.487 -0.0454418 1 0
3.378 -1.676 -1.804 -0.0135083 1 0
2.539 -2.009 -1.181 -0.0554063 1 0
2.764 -1.613 -1.516 0.00687537 1 0
3.198 -1.289 -2.241 -0.0147429 1 0
2.592 -1.245 -1.932 0.0322425 1 0
3.29 -1.214 -2.821 -0.0903047 1 -0.716305
4.386 -1.782 -2.276 -0.103633 1 0
4.345 -1.652 -2.852 -0.132427 1 -0.716493
4.715 -2.155 -1.954 -0.134156 1 -0.716309
5.649 -1.593 -2.023 -0.129107 1 -0.716334
5.28 -1.09 -2.922 -0.131451 1 -0.717003
5.438 -1.15 -2.354 -0.101471 1 0
5.652 -0.251 -2.404 -0.0435126 1 0
5.47 -0.292 -2.966 -0.106016 1 -0.716649
6.292 0.391 -2.188 0.0441148 -0.0179614 0
5.724 1.266 -2.313 0.0261122 -0.0179614 0
4.868 0.637 -3.099 -0.0987063 1 -0.806573
5.267 1.317 -2.245 -0.0162078 -0.0179614 0
4.621 1.505 -2.099 -0.0373314 -0.0179614 0
4.237 0.821 -2.957 -0.0891293 1 -0.716867
4.264 1.002 -2.394 -0.0325633 1 0
6.372 1.842 -0.648 0.0838869 -0.0179614 0
5.971 1.942 -0.435 0.064051 -0.0179614 0
5.931 1.867 0.022 0.090303 -0.0179614 0
6.401 0.286 -0.571 0.0750423 -0.0179614 0
5.96 0.311 0.099 0.0850426 -0.0179614 0
5.955 -0.906 -0.352 -0.0729079 1 -0.845232
4.94 -1.078 0.212 -0.059623 1 -0.716086
5.004 0.149 0.631 0.0941898 -0.0179614 0.0137763
4.64 -0.57 0.162 0.0279393 1 0
6.497 0.077 -1.693 0.0503075 -0.0179614 0.026707
6.057 -1.127 -1.543 -0.0981142 1 -0.716015
5.898 -0.625 -1.814 -0.0393977 1 0
-5.401 0.788 0.558 0.0295752 0.777584 0
-4.972 0.157 0.832 -0.0328948 0.777584 0
-4.421 -0.313 0.722 -0.135861 -0.1653 -0.572181
-4.601 -0.746 -0.008 -0.0514564 0.777584 0
-4.132 -0.604 0.426 -0.148737 -0.1653 -0.755802
-3.769 -0.875 0.899 -0.268802 -0.1653 -0.987849
-3.763 -0.541 0.086 -0.140656 -0.1653 -0.567791
-3.685 -0.454 -0.127 -0.109551 0.777584 0
-3.166 -0.572 0.122 -0.183824 1 0
-3.617 -0.392 -0.243 -0.0942838 0.777584 0
-3.093 -0.506 -0.004 -0.153375 1 0
-4.286 -0.393 -1.345 0.00710545 0.777584 0
-3.563 -0.01 -1.623 0.0176911 0.777584 0
-5.041 0.306 -1.642 0.0276681 0.777584 0
-4.803 0.69 -1.741 0.0315599 0.777584 0
-5.764 0.63 -0.918 0.0314689 0.777584 0
-5.73 1.489 -0.996 0.0439084 0.777584 0
-4.993 1.62 -1.761 0.0448539 0.777584 0
-4.786 1.206 -1.787 0.0389028 0.777584 0
-4.182 2.306 -1.59 0.0549058 0.777584 0
-3.492 1.828 -1.789 0.0522752 0.777584 0
-3.618 2.514 -0.129 0.0834202 0.777584 0
-4.21 2.579 0.404 0.09025 0.777584 0
-4.868 2.245 0.636 0.0827183 0.777584 0
-5.375 1.584 0.483 0.0600155 0.777584 0
-4.407 2.241 2.09 0.0748944 0.777584 0
-3.681 2.621 1.845 0.0837255 0.777584 0
-4.585 0.428 2.32 -0.0541741 0.777584 0
-3.872 -0.198 2.248 -0.266227 -0.1653 -0.413464
-2.432 0.258 2.436 -0.244739 -0.1653 -0.748058
-1.858 0.141 2.358 -0.133686 1 0
-2.416 -1.047 2.39 -0.14342 1 0
-3.261 -0.831 2.275 -0.278483 -0.1653 -0.445534
-2.843 -1.312 2.235 -0.156277 1 0
-2.678 -1.865 2.507 -0.0423357 1 0
-3.501 -1.112 1.686 -0.278317 -0.1653 -0.667937
-3.025 -1.525 1.789 -0.156215 1 0
-2.904 -2.13 1.952 -0.0423466 1 0
-2.865 -1.572 1.289 -0.143387 1 0
-2.382 -1.347 0.186 -0.06049 1 0
-2.176 -1.859 0.347 -0.0270367 1 0
-1.897 -1.252 -0.128 -0.00776069 1 0
-1.691 -1.764 0.034 0.00113243 1 0
-2.414 -0.115 -0.666 -0.0134602 0.777584 0
-2.789 -0.25 -0.464 -0.0566617 0.777584 0
-3.01 -0.325 -0.266 -0.0976164 0.777584 0
-3.094 -0.376 -0.173 -0.118074 0.777584 0
-2.191 0.091 -0.884 0.0152354 1 0
-1.879 0.862 -1.194 0.0565336 1 0
-1.936 1.134 -1.222 0.0626162 1 0
-2.586 1.657 -1.534 0.0578513 0.777584 0
-2.12 1.668 -1.134 0.0696447 1 0
-1.573 1.92 -1.013 0.086639 1 0
-2.405 1.905 -0.699 0.0750108 1 0
-2.589 1.937 -0.483 0.0749411 1 0
-2.595 1.946 -0.452 0.0754445 1 0
-2.348 2.264 -0.02 0.0895421 1 0
-2.325 2.79 0.822 0.0891273 0.777584 0
-1.925 2.499 0.535 0.0861672 1 0
-1.428 2.52 0.254 0.0914701 1 0
-1.719 2.045 1.077 0.063251 1 0
-1.667 1.81 1.197 0.0466202 1 0
-1.792 1.503 1.423 0.00444764 1 0
-2 1.28 1.624 -0.050683 1 0
-2.207 1.154 1.786 -0.102277 1 0
-0.971 0.465 1.957 -1.36201e-05 1 0
-0.635 0.821 1.653 0.0322462 1 0
-0.942 -0.128 2.218 -0.00637683 1 0
-0.737 -0.641 2.38 0.00314461 1 0
-1.465 -0.271 2.43 -0.0601056 1 0
-1.26 -0.783 2.592 -0.0260957 1 0
-0.051 -0.325 1.529 0.0556761 1 0
-0.034 -0.341 1.53 0.0557199 1 0
-0.322 -1.114 2.447 0.0170751 1 0
0.209 -1.276 2.308 0.0261997 1 0
-0.462 -1.741 2.642 0.0228004 1 0
0.069 -1.903 2.503 0.0300195 1 0
-0.96 -1.866 2.806 0.0226672 1 0
-1.287 -2.155 2.912 0.0300198 1 0
-1.417 -1.426 2.821 -0.00483559 1 0
-1.69 -1.768 2.925 0.0059862 1 0
-0.533 -2.747 2.322 0.0487384 1 0
-1.342 -3.223 2.224 0.0492098 1 0
-0.764 -3.219 1.986 0.0511311 1 0
-0.239 -3.555 1.933 0.0582534 1 0
-0.916 -3.195 1.382 0.0476839 1 0
-2.001 -2.99 1.161 0.0288708 1 0
-1.77 -2.814 0.818 0.0210688 1 0
-2.423 -2.626 1.126 0.00522652 1 0
-2.25 -2.4 0.778 -0.00588298 1 0
-1.331 -2.756 0.512 0.0203463 1 0
-0.8 -2.919 0.373 0.0267212 1 0
-1.284 -2.239 0.086 0.014008 1 0
-0.754 -2.402 -0.053 0.0218431 1 0
-0.745 -1.169 -0.212 0.0521498 1 0
-0.757 -1.158 -0.212 0.052136 1 0
-0.036 -0.849 -1.081 0.0540721 1 0
0.164 -1.352 -0.924 0.0442691 1 0
0.063 -0.208 -1.454 0.0467469 1 0
0.489 0.084 -1.852 0.0236471 1 0
-0.449 -0.313 -1.173 0.0562711 1 0
-0.973 -0.142 -1.041 0.0527737 1 0
-0.242 0.643 -1.327 0.0540035 1 0
-0.272 0.991 -1.273 0.0555242 1 0
-0.34 1.239 -1.202 0.0602628 1 0
-0.783 2.03 -0.925 0.0832682 1 0
-0.164 1.821 -1.023 0.0551344 1 0
0.356 1.915 -1.419 0.020355 1 0
-0.531 2.321 -0.306 0.0843075 1 0
0.055 2.073 -0.485 0.0567188 1 0
0.658 2.262 -0.68 0.0234284 1 0
0.187 1.846 0.091 0.0640606 1 0
0.35 1.706 0.25 0.0604526 1 0
0.497 1.503 0.486 0.0603928 1 0
-0.01 0.978 1.326 0.0572875 1 0
0.514 0.807 1.194 0.0636711 1 0
1.038 0.93 0.944 0.0580381 1 0
1.516 1.281 0.67 0.0399564 1 0
0.924 0.272 1.275 0.063707 1 0
1.124 -0.232 1.433 0.0543683 1 0
1.858 -0.971 1.397 0.00347757 1 0
2.367 -1.093 1.181 -0.0364233 1 0
1.454 -1.153 1.658 0.0223899 1 0
1.13 -1.509 1.959 0.0270611 1 0
1.04 -0.736 1.705 0.0419221 1 0
0.716 -1.091 2.007 0.033398 1 0
1.029 -2.156 2.167 0.0362458 1 0
1.099 -2.6 2.181 0.0458872 1 0
0.448 -2.297 2.436 0.0412421 1 0
0.587 -2.724 2.418 0.0518284 1 0
1.727 -2.247 1.256 -0.00876691 1 0
1.5 -3.253 1.079 0.0270978 1 0
1.769 -2.766 0.738 -0.0214143 1 -0.391413
2.32 -2.596 0.432 -0.0812674 1 -0.829616
1.289 -2.759 0.182 -0.0130792 1 0
0.368 -3.455 0.388 0.0418784 1 0
0.199 -3.127 0.131 0.0313153 1 0
-0.125 -3.558 0.669 0.0488432 1 0
-0.362 -3.244 0.45 0.0377332 1 0
0.217 -2.577 -0.281 0.0202261 1 0
0.541 -2.222 -0.583 0.0130984 1 0
-0.242 -2.213 -0.345 0.0271583 1 0
0.082 -1.858 -0.647 0.0334604 1 0
0.951 -2.031 -0.831 -0.00904478 1 0
1.499 -2.108 -0.952 -0.0520296 1 0
2.618 -0.092 -2.471 0.0126795 1 -0.467211
2.085 0.799 -2.52 -0.00252835 1 0
2.769 0.406 -2.606 -0.00711479 1 -0.551172
3.21 0.214 -3.236 -0.0950341 1 -0.933944
3.114 0.752 -2.381 0.0038635 1 -0.331966
3.11 0.99 -2.122 0.0197313 1 0
3.271 1.219 -1.832 0.026459 1 0
3.507 1.438 -1.557 0.0215375 -0.0179614 0
2.791 2.051 -1.102 0.0104944 1 0
3.495 1.744 -1.057 0.0212831 -0.0179614 0
4.211 2.023 -1.095 -0.0164129 -0.0179614 0
3.505 1.589 -0.492 0.0441637 -0.0179614 0
3.292 1.488 -0.27 0.0542986 1 0
3.865 1.461 -0.126 0.0618235 -0.0179614 0
3.216 1.044 0.063 0.0812976 1 0
3.797 1.063 0.171 0.0882643 -0.0179614 0
3.743 0.715 0.248 0.0995108 -0.0179614 0
4.073 0.104 0.311 0.0980814 -0.0179614 0
3.131 -0.362 0.604 0.0527851 1 0
2.89 -0.811 0.848 -0.0168398 1 0
3.648 -0.947 0.236 0.0235692 1 0
3.678 -1.038 0.213 0.0124799 1 0
3.854 -1.342 0.147 -0.0259628 1 -0.456288
3.218 -2.003 0.433 -0.0863933 1 -0.740931
3.795 -1.883 0.041 -0.0702963 1 -0.72723
4.482 -2.055 0.042 -0.113621 1 -0.977349
3.016 -2.398 -0.185 -0.0970882 1 -0.898857
3.648 -2.171 -0.41 -0.0809374 1 -0.727399
4.285 -2.44 -0.562 -0.126713 1 -0.97735
3.503 -2.027 -0.925 -0.0588996 1 -0.45658
3.24 -1.893 -1.126 -0.034176 1 0
2.986 -1.718 -1.389 -0.00541662 1 0
2.013 -1.834 -1.306 -0.0413824 1 0
2.215 -1.43 -1.647 0.0148832 1 0
3.029 -1.097 -2.303 -0.00541291 1 -0.271085
2.777 -0.454 -2.502 -0.00150693 1 -0.461093
3.765 -1.562 -2.829 -0.113315 1 -0.716986
3.732 -1.681 -2.25 -0.0609078 1 0
4.549 -1.759 -2.33 -0.112517 1 -0.243493
5.336 -1.286 -2.388 -0.110874 1 -0.24389
5.687 0.129 -2.441 -0.0230242 -0.0179614 0
5.269 0.773 -2.533 -0.0300306 -0.0179614 0
4.997 0.86 -2.545 -0.0422783 -0.0179614 0
4.473 1.013 -2.427 -0.0387789 -0.0179614 0
5.397 1.854 -1.992 -0.00623839 -0.0179614 0
5.843 1.76 -2.081 0.0370331 -0.0179614 0
5.592 2.182 -1.52 0.00775913 -0.0179614 0
6.023 2.062 -1.646 0.0494416 -0.0179614 0
5.802 2.214 -0.951 0.0291107 -0.0179614 0
6.216 2.092 -1.122 0.0647103 -0.0179614 0
5.397 2.244 -0.398 0.0341389 -0.0179614 0
5.403 2.144 0.055 0.0762264 -0.0179614 0
4.75 2.197 -0.364 0.0237232 -0.0179614 0
4.808 2.101 0.087 0.0710321 -0.0179614 0
6.215 1.396 0.226 0.104613 -0.0179614 0
6.656 1.371 -0.443 0.0984327 -0.0179614 0
6.226 0.81 0.255 0.10205 -0.0179614 0
6.666 0.785 -0.414 0.0949767 -0.0179614 0
5.732 -0.269 -0.202 0.0171708 1 -0.428183
5.013 -0.391 0.198 0.0322969 1 -0.301901
6.024 -0.285 -0.639 0.0076485 -0.0179614 0
6.22 -1.098 -0.914 -0.0916513 1 -0.897091
6.213 -0.422 -1.04 -0.00664626 -0.0179614 0
6.651 0.105 -1.1 0.0624015 -0.0179614 0
6.097 -0.443 -1.488 -0.0124789 -0.0179614 0
-3.936 0.887 -2.067 0.0374232 0.777584 0
-4.37 0.917 -1.907 0.0352899 0.777584 0
-4.505 -0.887 -0.58 -0.0241083 0.777584 0
-4.505 -0.688 -1.19 0.000527697 0.777584 0
-5.18 -0.688 0.03 -0.0222294 0.777584 0
-5.18 -0.887 -0.58 -0.00643021 0.777584 0
-5.18 -0.688 -1.19 0.0083537 0.777584 0
-5.18 -0.169 -1.567 0.0200471 0.777584 0
-5.726 -0.169 -0.024 0.00546728 0.777584 0
-5.726 -0.49 -0.58 0.00798546 0.777584 0
-5.726 -0.169 -1.136 0.0188492 0.777584 0
-5.934 0.151 -0.58 0.0206361 0.777584 0
-4.944 2.112 2.239 0.0630554 0.777584 0
-4.944 1.593 2.616 0.0394641 0.777584 0
-4.944 0.952 2.616 0.0104581 0.777584 0
-5.489 1.914 1.628 0.0672893 0.777584 0
-5.489 1.593 2.184 0.0508447 0.777584 0
-5.489 0.952 2.184 0.0296884 0.777584 0
-5.698 1.272 1.628 0.0500943 0.777584 0
-3.012 0.135 2.605 -0.263668 -0.1653 -0.99056
-2.993 0.111 -1.771 0.0242515 0.777584 0
-2.993 0.63 -2.148 0.0355344 0.777584 0
-2.993 1.271 -2.148 0.0441505 0.777584 0
-2.993 1.791 -1.771 0.0532444 0.777584 0
-4.436 2.987 -0.744 0.0618346 0.777584 0
-4.436 2.789 -1.354 0.0553948 0.777584 0
-5.11 2.987 -0.744 0.0553984 0.777584 0
-5.11 2.27 -1.732 0.0471965 0.777584 0
-5.11 2.789 -1.354 0.050589 0.777584 0
-5.656 2.591 -0.744 0.0505628 0.777584 0
-5.656 2.27 -1.3 0.046413 0.777584 0
-5.865 1.949 -0.744 0.0467807 0.777584 0
-2.75 3.105 1.115 0.0857927 0.777584 0
-2.75 2.907 1.726 0.0732605 0.777584 0
-2.75 2.387 2.103 0.0502184 0.777584 0
-3.425 3.105 1.115 0.091226 0.777584 0
-3.425 2.907 1.726 0.0817504 0.777584 0
-0.873 -1.291 2.777 0.00477098 1 0
-1.485 -2.598 2.956 0.034521 1 0
-2.16 -1.956 2.956 -0.00355564 1 0
-2.16 -2.598 2.956 0.0192781 1 0
-2.16 -3.117 2.579 0.03002 1 0
-2.16 -3.315 1.968 0.0328936 1 0
-2.706 -2.598 2.524 0.00253468 1 0
-2.706 -2.919 1.969 0.0109294 1 0
-0.875 2.539 -0.072 0.0867913 1 0
-0.875 2.341 0.538 0.0853924 1 0
-0.552 1.41 1.358 0.0500638 1 0
1.366 -3.292 1.915 0.042298 1 0
1.366 -3.613 1.36 0.0377501 1 0
0.821 -3.292 2.347 0.0508739 1 0
0.821 -3.811 1.97 0.0496135 1 0
0.821 -4.01 1.359 0.0461162 1 0
0.821 -3.811 0.749 0.0405289 1 0
0.146 -3.811 1.97 0.0548177 1 0
0.146 -4.01 1.359 0.0517938 1 0
0.146 -3.811 0.749 0.0478255 1 0
-0.218 -2.889 -0.057 0.0244626 1 0
2.225 2.45 -0.944 0.00447798 1 0
2.225 2.318 -0.322 0.0134048 1 0
2.225 1.944 0.192 0.0245579 1 0
2.225 1.393 0.51 0.0382048 1 0
2.225 1.944 -2.081 -0.00623264 1 0
2.225 2.318 -1.566 -0.0021357 1 0
1.592 2.576 -0.944 0.00468018 1 0
1.592 2.464 -0.346 0.0120338 1 0
1.592 2.144 0.171 0.0206714 1 0
1.592 1.074 -2.593 -0.00717793 1 0
1.592 1.659 -2.426 -0.00820571 1 0
1.592 2.144 -2.06 -0.00580725 1 0
1.592 2.464 -1.542 -0.00135401 1 0
0.958 2.45 -0.944 0.0119124 1 0
0.958 0.156 -2.269 0.00946295 1 0
0.958 0.761 -2.465 0.000265132 1 0
0.958 1.393 -2.399 -0.00244608 1 0
0.958 1.944 -2.081 -0.000549383 1 0
0.958 2.318 -1.566 0.004501 1 0
0.421 0.921 -2.115 0.0110039 1 0
0.421 1.506 -1.958 0.010673 1 0
2.991 -1.715 0.896 -0.0708256 1 -0.34416
2.465 -2.639 -0.385 -0.0912947 1 -0.746205
2.465 -2.355 -0.927 -0.0795116 1 -0.208906
1.882 -2.355 -0.927 -0.0700721 1 0
5.31 -0.73 -3.481 -0.134129 1 -0.989029
5.31 -0.11 -3.481 -0.122491 1 -0.983701
4.856 -1.124 -3.756 -0.143741 1 -0.967103
4.856 -0.573 -4.007 -0.140525 1 -0.799937
4.856 0.027 -3.921 -0.132129 1 -0.907216
4.856 0.484 -3.525 -0.116836 1 -0.990984
4.236 -1.625 -3.241 -0.13757 1 -0.948452
4.236 -1.349 -3.767 -0.142302 1 -0.94541
4.236 -0.86 -4.104 -0.142225 1 -0.52004
4.236 -0.27 -4.176 -0.137972 1 -0.30146
4.236 0.285 -3.965 -0.129267 1 -0.856046
4.236 0.679 -3.52 -0.114184 1 -0.993346
3.615 -1.451 -3.246 -0.123837 1 -0.957795
3.615 -1.124 -3.756 -0.133116 1 -0.941023
3.615 -0.573 -4.007 -0.133402 1 -0.712423
3.615 0.027 -3.921 -0.126555 1 -0.859038
3.615 0.484 -3.525 -0.111278 1 -0.998001
3.161 -0.73 -3.481 -0.114564 1 -0.9997
5.416 2.37 -0.961 0.00471379 -0.0179614 0
4.832 2.37 -0.961 -0.0116851 -0.0179614 0
4.832 1.818 -2.013 -0.0337753 -0.0179614 0
4.832 2.224 -1.555 -0.0271541 -0.0179614 0
6.064 1.396 0.638 0.105433 -0.0179614 0.105823
6.064 0.755 0.638 0.101231 -0.0179614 0.125152
5.519 1.915 0.692 0.101275 -0.0179614 0.137688
5.519 1.396 1.069 0.107616 -0.0179614 0.843559
5.519 0.755 1.069 0.104263 -0.0179614 0.860327
4.844 1.915 0.692 0.098799 -0.0179614 0.0645304
4.844 1.396 1.069 0.10822 -0.0179614 0.779782
4.844 0.755 1.069 0.107527 -0.0179614 0.796754
6.304 -1.546 -0.93 -0.114402 1 -0.999991
6.138 -1.857 -0.393 -0.121087 1 -0.8719
6.138 -2.167 -0.93 -0.1332 1 -0.80723
6.138 -1.857 -1.467 -0.129554 1 -0.999769
5.683 -1.699 0.134 -0.109729 1 -0.972371
5.683 -2.25 -0.118 -0.128772 1 -0.603946
5.683 -2.577 -0.627 -0.138983 1 -0.190393
5.683 -2.577 -1.233 -0.142948 1 -0.814824
5.683 -2.25 -1.742 -0.141704 1 -0.999394
5.063 -1.986 0.23 -0.115128 1 -0.986509
5.063 -2.475 -0.107 -0.131477 1 -0.823776
5.063 -2.751 -0.633 -0.139829 1 -0.774537
5.063 -2.751 -1.227 -0.143004 1 -0.949182
5.063 -2.475 -1.753 -0.14272 1 -0.980072
4.443 -2.577 -1.233 -0.133097 1 -0.966005
7.195 1.024 -1.318 0.0858702 -0.0179614 0.884384
6.986 1.665 -1.318 0.086857 -0.0179614 0.463629
6.986 1.344 -0.763 0.0937785 -0.0179614 0.141943
6.986 0.703 -0.763 0.0874812 -0.0179614 0.223243
6.986 0.382 -1.318 0.0733581 -0.0179614 0.61551
6.986 0.703 -1.874 0.0722307 -0.0179614 0.911123
6.986 1.344 -1.874 0.0790454 -0.0179614 0.839873
6.44 1.344 -2.306 0.0605846 -0.0179614 0.172891
6.44 1.863 -1.928 0.0672772 -0.0179614 0
3 0 4 1
3 1 4 3
3 4 7 234
3 234 7 235
3 234 235 5
3 5 235 6
3 7 10 8
3 8 10 9
3 10 237 236
3 236 237 238
3 236 238 11
3 11 238 239
3 237 13 238
3 238 13 240
3 238 240 239
3 239 240 12
3 13 16 241
3 241 16 243
3 241 243 242
3 242 243 244
3 242 244 14
3 14 244 15
3 16 19 17
3 17 19 18
3 19 245 20
3 20 245 246
3 245 22 246
3 246 22 21
3 22 247 23
3 23 247 248
3 247 25 248
3 248 25 24
3 25 249 26
3 26 249 250
3 249 0 250
3 250 0 2
3 26 251 24
3 24 251 252
3 251 28 252
3 252 28 27
3 28 253 29
3 29 253 254
3 253 31 254
3 254 31 30
3 31 34 32
3 32 34 33
3 34 37 255
3 255 37 256
3 255 256 35
3 35 256 36
3 37 40 38
3 38 40 39
3 40 43 257
3 257 43 258
3 257 258 41
3 41 258 42
3 43 2 44
3 44 2 1
3 44 3 42
3 42 3 5
3 41 46 39
3 39 46 45
3 46 259 47
3 47 259 260
3 259 49 260
3 260 49 48
3 49 52 50
3 50 52 51
3 52 261 53
3 53 261 262
3 261 55 262
3 262 55 54
3 55 6 56
3 56 6 8
3 56 9 54
3 54 9 11
3 53 58 51
3 51 58 57
3 58 61 59
3 59 61 60
3 61 263 62
3 62 263 264
3 263 64 264
3 264 64 63
3 64 67 65
3 65 67 66
3 67 266 265
3 265 266 267
3 265 267 68
3 68 267 268
3 266 269 267
3 267 269 270
3 267 270 268
3 268 270 271
3 269 70 270
3 270 70 272
3 270 272 271
3 271 272 69
3 70 73 71
3 71 73 72
3 73 12 74
3 74 12 14
3 74 273 72
3 72 273 274
3 273 275 274
3 274 275 276
3 275 76 276
3 276 76 75
3 76 79 77
3 77 79 78
3 79 82 80
3 80 82 81
3 82 85 277
3 277 85 278
3 277 278 83
3 83 278 84
3 85 15 279
3 279 15 280
3 279 280 86
3 86 280 17
3 86 18 84
3 84 18 20
3 83 88 281
3 281 88 282
3 281 282 81
3 81 282 87
3 88 284 283
3 283 284 285
3 283 285 89
3 89 285 286
3 284 91 285
3 285 91 287
3 285 287 286
3 286 287 90
3 91 30 92
3 92 30 32
3 92 94 288
3 288 94 289
3 288 289 90
3 90 289 93
3 94 33 95
3 95 33 35
3 95 291 290
3 290 291 292
3 290 292 93
3 93 292 293
3 291 97 292
3 292 97 294
3 292 294 293
3 293 294 96
3 97 100 295
3 295 100 296
3 295 296 98
3 98 296 99
3 100 60 297
3 297 60 298
3 297 298 101
3 101 298 62
3 101 299 99
3 99 299 300
3 299 103 300
3 300 103 102
3 103 106 104
3 104 106 105
3 106 301 107
3 107 301 302
3 301 303 302
3 302 303 304
3 303 63 304
3 304 63 65
3 107 109 305
3 305 109 306
3 305 306 105
3 105 306 108
3 109 112 110
3 110 112 111
3 112 307 113
3 113 307 308
3 307 309 308
3 308 309 310
3 309 115 310
3 310 115 114
3 115 311 116
3 116 311 312
3 311 313 312
3 312 313 314
3 313 66 314
3 314 66 68
3 116 118 114
3 114 118 117
3 118 316 315
3 315 316 317
3 315 317 119
3 119 317 318
3 316 121 317
3 317 121 319
3 317 319 318
3 318 319 120
3 121 124 122
3 122 124 123
3 124 320 125
3 125 320 321
3 320 322 321
3 321 322 323
3 322 69 323
3 323 69 71
3 125 324 123
3 123 324 325
3 324 326 325
3 325 326 327
3 326 127 327
3 327 127 126
3 127 130 128
3 128 130 129
3 130 75 328
3 328 75 329
3 328 329 131
3 131 329 77
3 131 330 129
3 129 330 331
3 330 133 331
3 331 133 132
3 133 332 134
3 134 332 333
3 332 136 333
3 333 136 135
3 136 334 137
3 137 334 335
3 334 78 335
3 335 78 80
3 137 139 336
3 336 139 337
3 336 337 135
3 135 337 138
3 139 87 140
3 140 87 89
3 140 339 338
3 338 339 340
3 338 340 138
3 138 340 341
3 339 342 340
3 340 342 343
3 340 343 341
3 341 343 344
3 342 142 343
3 343 142 345
3 343 345 344
3 344 345 141
3 142 96 143
3 143 96 98
3 143 145 346
3 346 145 347
3 346 347 141
3 141 347 144
3 145 348 146
3 146 348 349
3 348 102 349
3 349 102 104
3 146 350 144
3 144 350 351
3 350 148 351
3 351 148 147
3 148 352 149
3 149 352 353
3 352 108 353
3 353 108 110
3 149 151 147
3 147 151 150
3 151 154 152
3 152 154 153
3 154 354 155
3 155 354 355
3 354 157 355
3 355 157 156
3 157 356 158
3 158 356 357
3 356 358 357
3 357 358 359
3 358 111 359
3 359 111 113
3 158 160 156
3 156 160 159
3 160 360 161
3 161 360 361
3 360 362 361
3 361 362 363
3 362 117 363
3 363 117 119
3 161 365 364
3 364 365 366
3 364 366 159
3 159 366 367
3 365 163 366
3 366 163 368
3 366 368 367
3 367 368 162
3 163 369 164
3 164 369 370
3 369 371 370
3 370 371 372
3 371 120 372
3 372 120 122
3 164 166 162
3 162 166 165
3 166 373 167
3 167 373 374
3 373 375 374
3 374 375 376
3 375 126 376
3 376 126 128
3 167 377 165
3 165 377 378
3 377 169 378
3 378 169 168
3 169 172 170
3 170 172 171
3 172 132 173
3 173 132 134
3 173 175 171
3 171 175 174
3 175 380 379
3 379 380 381
3 379 381 176
3 176 381 382
3 380 178 381
3 381 178 383
3 381 383 382
3 382 383 177
3 178 181 384
3 384 181 385
3 384 385 179
3 179 385 180
3 181 387 386
3 386 387 388
3 386 388 182
3 182 388 389
3 387 184 388
3 388 184 390
3 388 390 389
3 389 390 183
3 184 187 391
3 391 187 393
3 391 393 392
3 392 393 394
3 392 394 185
3 185 394 186
3 187 150 188
3 188 150 152
3 188 190 395
3 395 190 396
3 395 396 186
3 186 396 189
3 190 193 191
3 191 193 192
3 193 397 194
3 194 397 398
3 397 153 398
3 398 153 155
3 194 196 399
3 399 196 400
3 399 400 192
3 192 400 195
3 196 402 401
3 401 402 403
3 401 403 197
3 197 403 404
3 402 405 403
3 403 405 406
3 403 406 404
3 404 406 407
3 405 199 406
3 406 199 408
3 406 408 407
3 407 408 198
3 199 202 409
3 409 202 410
3 409 410 200
3 200 410 201
3 202 411 203
3 203 411 412
3 411 168 412
3 412 168 170
3 203 205 201
3 201 205 204
3 205 174 413
3 413 174 414
3 413 414 206
3 206 414 176
3 206 415 204
3 204 415 416
3 415 208 416
3 416 208 207
3 208 211 417
3 417 211 418
3 417 418 209
3 209 418 210
3 211 214 212
3 212 214 213
3 214 217 419
3 419 217 420
3 419 420 215
3 215 420 216
3 217 220 421
3 421 220 422
3 421 422 218
3 218 422 219
3 220 177 221
3 221 177 179
3 221 180 219
3 219 180 182
3 218 423 216
3 216 423 424
3 423 425 424
3 424 425 426
3 425 427 426
3 426 427 428
3 427 223 428
3 428 223 222
3 223 429 224
3 224 429 430
3 429 431 430
3 430 431 432
3 431 183 432
3 432 183 185
3 224 433 222
3 222 433 434
3 433 435 434
3 434 435 436
3 435 226 436
3 436 226 225
3 226 229 437
3 437 229 438
3 437 438 227
3 227 438 228
3 229 189 230
3 230 189 191
3 230 195 228
3 228 195 197
3 227 440 439
3 439 440 441
3 439 441 225
3 225 441 442
3 440 232 441
3 441 232 443
3 441 443 442
3 442 443 231
3 232 210 233
3 233 210 212
3 233 213 231
3 231 213 215
3 209 198 207
3 207 198 200
3 59 48 57
3 57 48 50
3 47 36 45
3 45 36 38
3 29 444 27
3 27 444 445
3 444 21 445
3 445 21 23
3 2 0 1
3 5 3 234
3 234 3 4
3 8 6 235
3 8 235 7
3 11 9 236
3 236 9 10
3 14 12 242
3 242 12 240
3 242 240 241
3 241 240 13
3 280 15 244
3 280 244 243
3 280 243 17
3 17 243 16
3 20 18 19
3 23 21 22
3 26 24 25
3 29 27 28
3 32 30 31
3 35 33 255
3 255 33 34
3 38 36 256
3 38 256 37
3 41 39 257
3 257 39 40
3 44 42 258
3 44 258 43
3 47 45 46
3 50 48 49
3 53 51 52
3 56 54 55
3 59 57 58
3 298 60 61
3 298 61 62
3 65 63 64
3 68 66 265
3 265 66 67
3 71 69 272
3 71 272 70
3 74 72 73
3 329 75 76
3 329 76 77
3 80 78 79
3 281 81 277
3 281 277 83
3 277 81 82
3 86 84 278
3 86 278 279
3 279 278 85
3 89 87 282
3 89 282 283
3 283 282 88
3 288 90 287
3 288 287 91
3 288 91 92
3 290 93 289
3 290 289 95
3 95 289 94
3 98 96 295
3 295 96 294
3 295 294 97
3 101 99 296
3 101 296 297
3 297 296 100
3 104 102 103
3 305 105 106
3 305 106 107
3 110 108 306
3 110 306 109
3 113 111 112
3 116 114 115
3 119 117 315
3 315 117 118
3 122 120 319
3 122 319 121
3 125 123 124
3 128 126 127
3 131 129 328
3 328 129 130
3 134 132 133
3 336 135 136
3 336 136 137
3 338 138 337
3 338 337 139
3 338 139 140
3 346 141 345
3 346 345 143
3 143 345 142
3 146 144 347
3 146 347 145
3 149 147 148
3 152 150 151
3 155 153 154
3 158 156 157
3 364 159 160
3 364 160 161
3 164 162 368
3 164 368 163
3 167 165 166
3 170 168 169
3 173 171 172
3 414 174 379
3 414 379 176
3 379 174 175
3 179 177 383
3 179 383 384
3 384 383 178
3 182 180 386
3 386 180 385
3 386 385 181
3 185 183 392
3 392 183 390
3 392 390 391
3 391 390 184
3 395 186 394
3 395 394 393
3 395 393 188
3 188 393 187
3 191 189 396
3 191 396 190
3 399 192 193
3 399 193 194
3 197 195 401
3 401 195 400
3 401 400 196
3 200 198 408
3 200 408 409
3 409 408 199
3 203 201 410
3 203 410 202
3 206 204 413
3 413 204 205
3 209 207 417
3 417 207 208
3 212 210 418
3 212 418 211
3 215 213 419
3 419 213 214
3 218 216 420
3 218 420 421
3 421 420 217
3 221 219 422
3 221 422 220
3 224 222 223
3 439 225 437
3 439 437 227
3 437 225 226
3 230 228 438
3 230 438 229
3 233 231 443
3 233 443 232
3 446 449 450
3 447 446 450
3 447 450 451
3 448 452 453
3 449 448 453
3 450 449 453
3 450 453 454
3 451 450 454
3 453 452 455
3 454 453 455
3 454 455 249
3 454 249 25
3 454 25 451
3 451 25 247
3 451 247 22
3 451 22 447
3 447 22 245
3 447 245 19
3 447 19 446
3 446 19 16
3 446 16 13
3 446 13 237
3 446 237 449
3 449 237 448
3 448 237 10
3 448 10 7
3 448 7 452
3 452 7 4
3 452 4 455
3 455 4 0
3 455 0 249
3 3 44 1
3 456 459 460
3 457 456 460
3 457 460 461
3 458 457 461
3 460 459 462
3 461 460 462
3 461 462 6
3 461 6 55
3 461 55 261
3 461 261 458
3 458 261 52
3 458 52 457
3 457 52 49
3 457 49 456
3 456 49 259
3 456 259 46
3 456 46 459
3 459 46 41
3 459 41 42
3 459 42 462
3 462 42 5
3 462 5 6
3 9 56 8
3 12 73 239
3 239 73 70
3 239 70 269
3 239 269 11
3 11 269 54
3 54 269 262
3 262 269 266
3 262 266 463
3 262 463 53
3 53 463 58
3 58 463 263
3 58 263 61
3 263 463 64
3 64 463 67
3 67 463 266
3 15 85 273
3 15 273 14
3 14 273 74
3 273 85 275
3 275 85 82
3 275 82 79
3 275 79 76
3 18 86 17
3 444 29 466
3 444 466 465
3 444 465 21
3 21 465 464
3 21 464 246
3 246 464 20
3 20 464 83
3 20 83 84
3 83 464 88
3 88 464 465
3 88 465 466
3 88 466 284
3 284 466 467
3 284 467 30
3 284 30 91
3 30 467 254
3 254 467 466
3 254 466 29
3 252 27 445
3 252 445 248
3 252 248 24
3 248 445 23
3 468 469 472
3 468 472 470
3 472 471 474
3 473 472 474
3 470 472 473
3 473 474 475
3 475 474 250
3 475 250 2
3 475 2 43
3 475 43 473
3 473 43 40
3 473 40 470
3 470 40 37
3 470 37 468
3 468 37 34
3 468 34 31
3 468 31 469
3 469 31 253
3 469 253 471
3 469 471 472
3 471 253 28
3 471 28 251
3 471 251 26
3 471 26 474
3 474 26 250
3 33 94 92
3 33 92 32
3 477 476 480
3 476 479 480
3 480 479 47
3 480 47 260
3 480 260 48
3 480 48 478
3 480 478 477
3 477 478 97
3 477 97 291
3 477 291 476
3 476 291 35
3 476 35 479
3 479 35 36
3 479 36 47
3 35 291 95
3 97 478 100
3 100 478 60
3 60 478 59
3 59 478 48
3 39 45 38
3 51 57 50
3 106 103 301
3 301 103 299
3 301 299 264
3 301 264 303
3 303 264 63
3 264 299 62
3 62 299 101
3 112 109 307
3 311 115 309
3 311 309 481
3 311 481 313
3 313 481 304
3 313 304 65
3 313 65 66
3 304 481 302
3 302 481 307
3 302 307 109
3 302 109 107
3 307 481 309
3 118 116 316
3 124 121 320
3 484 483 487
3 485 484 487
3 485 487 488
3 486 485 488
3 486 488 320
3 486 320 121
3 486 121 316
3 486 316 485
3 485 316 482
3 485 482 484
3 484 482 483
3 483 482 314
3 483 314 68
3 483 68 268
3 483 268 487
3 487 268 271
3 487 271 488
3 488 271 69
3 488 69 322
3 488 322 320
3 314 482 312
3 312 482 116
3 116 482 316
3 130 127 75
3 75 127 276
3 276 127 326
3 276 326 274
3 274 326 323
3 274 323 72
3 72 323 71
3 323 326 324
3 323 324 321
3 321 324 125
3 131 77 330
3 334 136 332
3 334 332 330
3 334 330 78
3 78 330 77
3 330 332 133
3 81 87 335
3 81 335 80
3 335 87 137
3 137 87 139
3 90 93 489
3 90 489 286
3 286 489 339
3 286 339 140
3 286 140 89
3 339 489 342
3 342 489 142
3 142 489 490
3 142 490 96
3 96 490 293
3 293 490 489
3 293 489 93
3 300 102 348
3 300 348 491
3 300 491 99
3 99 491 98
3 98 491 143
3 143 491 145
3 145 491 348
3 104 105 349
3 105 108 352
3 105 352 349
3 349 352 350
3 349 350 146
3 350 352 148
3 110 111 353
3 356 157 354
3 356 354 358
3 358 354 353
3 358 353 111
3 353 354 154
3 353 154 149
3 149 154 151
3 114 117 362
3 114 362 310
3 310 362 308
3 308 362 360
3 308 360 357
3 308 357 359
3 308 359 113
3 357 360 158
3 158 360 160
3 492 494 495
3 493 492 495
3 493 495 496
3 493 496 497
3 495 498 499
3 496 495 499
3 496 499 500
3 497 496 500
3 497 500 369
3 497 369 163
3 497 163 365
3 497 365 493
3 493 365 492
3 492 365 161
3 492 161 361
3 492 361 494
3 494 361 363
3 494 363 119
3 494 119 498
3 494 498 495
3 498 119 318
3 498 318 499
3 499 318 120
3 499 120 500
3 500 120 371
3 500 371 369
3 327 126 375
3 327 375 501
3 327 501 325
3 325 501 372
3 325 372 123
3 123 372 122
3 372 501 370
3 370 501 373
3 370 373 166
3 370 166 164
3 373 501 375
3 128 129 376
3 331 132 169
3 331 169 377
3 331 377 376
3 331 376 129
3 376 377 374
3 374 377 167
3 169 132 172
3 503 502 509
3 503 509 510
3 504 503 510
3 506 512 513
3 507 506 513
3 507 513 514
3 502 507 514
3 502 514 508
3 502 508 509
3 509 508 515
3 511 517 518
3 512 511 518
3 512 518 519
3 513 512 519
3 513 519 520
3 514 513 520
3 515 514 520
3 508 514 515
3 518 517 521
3 518 521 522
3 519 518 522
3 519 522 341
3 519 341 520
3 520 341 515
3 515 341 344
3 515 344 509
3 509 344 141
3 509 141 510
3 510 141 144
3 510 144 351
3 510 351 505
3 510 505 504
3 504 505 187
3 504 187 184
3 504 184 503
3 503 184 387
3 503 387 502
3 502 387 507
3 507 387 181
3 507 181 506
3 506 181 178
3 506 178 512
3 512 178 380
3 512 380 511
3 511 380 175
3 511 175 517
3 517 175 516
3 517 516 521
3 521 516 333
3 521 333 135
3 521 135 138
3 521 138 522
3 522 138 341
3 333 516 134
3 134 516 173
3 173 516 175
3 187 505 150
3 150 505 147
3 147 505 351
3 397 193 190
3 397 190 188
3 397 188 153
3 153 188 152
3 525 524 526
3 525 526 202
3 525 202 199
3 525 199 524
3 524 199 405
3 524 405 367
3 524 367 162
3 524 162 526
3 526 162 165
3 526 165 378
3 526 378 411
3 526 411 202
3 411 378 168
3 367 405 402
3 367 402 523
3 367 523 159
3 159 523 156
3 156 523 355
3 355 523 398
3 355 398 155
3 398 523 194
3 194 523 196
3 196 523 402
3 171 174 170
3 170 174 205
3 170 205 412
3 412 205 203
3 527 529 530
3 528 527 530
3 528 530 531
3 528 531 532
3 529 534 535
3 530 529 535
3 530 535 536
3 531 530 536
3 531 536 537
3 532 531 537
3 532 537 538
3 534 533 539
3 534 539 540
3 535 534 540
3 535 540 541
3 536 535 541
3 536 541 542
3 537 536 542
3 537 542 543
3 538 537 543
3 540 539 544
3 541 540 544
3 541 544 542
3 542 544 382
3 542 382 543
3 543 382 177
3 543 177 538
3 538 177 220
3 538 220 217
3 538 217 532
3 532 217 528
3 528 217 214
3 528 214 527
3 527 214 211
3 527 211 529
3 529 211 533
3 529 533 534
3 533 211 208
3 533 208 415
3 533 415 539
3 539 415 206
3 539 206 544
3 544 206 176
3 544 176 382
3 180 221 179
3 545 548 546
3 545 546 429
3 545 429 427
3 545 427 425
3 545 425 548
3 548 425 423
3 548 423 547
3 548 547 182
3 548 182 389
3 548 389 546
3 546 389 431
3 546 431 429
3 431 389 183
3 182 547 219
3 219 547 218
3 218 547 423
3 427 429 223
3 549 551 552
3 549 552 553
3 550 549 553
3 551 554 555
3 552 551 555
3 552 555 556
3 553 552 556
3 553 556 229
3 553 229 550
3 550 229 226
3 550 226 435
3 550 435 549
3 549 435 433
3 549 433 224
3 549 224 551
3 551 224 430
3 551 430 554
3 554 430 432
3 554 432 185
3 554 185 186
3 554 186 555
3 555 186 556
3 556 186 189
3 556 189 229
3 192 195 230
3 192 230 191
3 557 558 559
3 557 559 560
3 558 561 562
3 558 562 563
3 559 558 563
3 559 563 564
3 560 559 564
3 560 564 565
3 562 561 566
3 562 566 567
3 563 562 567
3 563 567 568
3 563 568 569
3 564 563 569
3 564 569 570
3 565 564 570
3 569 568 571
3 570 569 571
3 570 571 209
3 570 209 565
3 565 209 210
3 565 210 560
3 560 210 232
3 560 232 557
3 557 232 440
3 557 440 558
3 558 440 227
3 558 227 561
3 561 227 228
3 561 228 566
3 566 228 197
3 566 197 404
3 566 404 567
3 567 404 407
3 567 407 568
3 568 407 571
3 571 407 198
3 571 198 209
3 201 204 416
3 201 416 200
3 200 416 207
3 213 233 212
3 572 573 574
3 572 574 575
3 572 575 576
3 572 576 577
3 572 577 578
3 572 578 573
3 578 577 579
3 578 579 580
3 573 578 580
3 573 580 428
3 573 428 222
3 573 222 574
3 574 222 434
3 574 434 436
3 574 436 575
3 575 436 225
3 575 225 442
3 575 442 576
3 576 442 231
3 576 231 577
3 577 231 215
3 577 215 579
3 579 215 216
3 579 216 424
3 579 424 580
3 580 424 426
3 580 426 428
